# xmcd
#
# Track frame offsets:
#	150
#	15582
#	28043
#	41317
#	58338
#	69200
#	83688
#	95998
#	112077
#	128756
#	141096
#
# Disc length: 2078 seconds
#
# Revision: 1
# Processed by: cddbd v1.5.2PL0 Copyright (c) Steve Scherf et al.
# Submitted via: audiograbber 1.83.01
#
DISCID=92081c0b
DTITLE=Ags Connolly - How About Now
DYEAR=1900
DGENRE=Country
TTITLE0=When Country Was Proud
TTITLE1=A Good Memory For Pain
TTITLE2=That's The Last Time
TTITLE3=I'm Not Someone You Want To Know
TTITLE4=I Saw James Hand
TTITLE5=Get Out Of My Mind
TTITLE6=The Dim And Distant Past
TTITLE7=I Hoped She Wouldn't Be Here
TTITLE8=Trusty Companion
TTITLE9=She Doesn't Need Anyone Anymore
TTITLE10=How About Now
EXTD=
EXTT0=
EXTT1=
EXTT2=
EXTT3=
EXTT4=
EXTT5=
EXTT6=
EXTT7=
EXTT8=
EXTT9=
EXTT10=
PLAYORDER=
